<?xml version="1.0" encoding="utf-8"?>
<!-- Generator: Adobe Illustrator 23.0.2, SVG Export Plug-In . SVG Version: 6.00 Build 0)  -->
<!DOCTYPE svg PUBLIC "-//W3C//DTD SVG 1.1//EN" "http://www.w3.org/Graphics/SVG/1.1/DTD/svg11.dtd" [
	<!ENTITY ns_extend "http://ns.adobe.com/Extensibility/1.0/">
	<!ENTITY ns_ai "http://ns.adobe.com/AdobeIllustrator/10.0/">
	<!ENTITY ns_graphs "http://ns.adobe.com/Graphs/1.0/">
	<!ENTITY ns_vars "http://ns.adobe.com/Variables/1.0/">
	<!ENTITY ns_imrep "http://ns.adobe.com/ImageReplacement/1.0/">
	<!ENTITY ns_sfw "http://ns.adobe.com/SaveForWeb/1.0/">
	<!ENTITY ns_custom "http://ns.adobe.com/GenericCustomNamespace/1.0/">
	<!ENTITY ns_adobe_xpath "http://ns.adobe.com/XPath/1.0/">
]>
<svg version="1.1" id="Isolation_Mode" xmlns:x="&ns_extend;" xmlns:i="&ns_ai;" xmlns:graph="&ns_graphs;"
	 xmlns="http://www.w3.org/2000/svg" xmlns:xlink="http://www.w3.org/1999/xlink" x="0px" y="0px" viewBox="0 0 1287.8 373.3"
	 style="enable-background:new 0 0 1287.8 373.3;" xml:space="preserve">
<style type="text/css">
	.st0{fill:#B2B2B2;}
</style>
<metadata>
	<sfw  xmlns="&ns_sfw;">
		<slices></slices>
		<sliceSourceBounds  bottomLeftOrigin="true" height="373.4" width="1287.8" x="-548.4" y="26.6"></sliceSourceBounds>
	</sfw>
</metadata>
<g>
	<path class="st0" d="M164.8,2.2c2.7-0.7,5.3-1.4,8-2.2c15.3-0.8,26.3,5.3,32.1,19.8c0.9,2.3,2.6,2.8,4.8,2.1c2.4,0,4.7,0,7.1,0
		c2.3,0,4.6,0,6.9,0c14.4,0,28.7,0,43.1,0.1c9.2,1.2,17.4,4.4,23.9,11.2c11.7,12.1,23.5,24,34.9,36.3c3.2,3.4,6.4,4.5,10.9,4.5
		c36.3-0.2,72.7-0.1,109-0.1c3.9,0,7.9-0.5,11.3,2.3c3.8,9.1,0.6,13.8-9.3,13.8c-38.4,0-76.8,0-115.2,0c-6.8,0-13.6,0.1-20.4,0.2
		c-2.4,0-4.7,0-7.1,0c-2.6,0-5.3,0-7.9,0c-2.4,0-4.8,0-7.1,0c-0.3-0.2-0.5-0.2-0.8,0c-11.7-1.6-21.9,0.4-29.8,10.2
		c-4.9,6-10.7,11.3-17.2,15.6c-0.7-0.1-1,0.3-1.2,0.9c-1.1,0-2.2,0.2-3,1.1c-1.1,0.1-2.2-0.2-3,0.9c-1.7,0.1-3.4,0.1-5,1.1
		c-12,0.1-23.9,0.2-35.9,0.2c-8.1-0.1-16.3-0.2-24.5-0.2c-10,0-18.3-3.9-25.4-10.7c-4.4-4.3-8.7-8.7-13.1-13
		c-4.2-4.2-9.2-6.3-15.2-6.3c-17.6,0.1-35.3,0.1-52.9,0c-4.2,0-7.4,0.3-8.5,5.3c-0.6,2.5-2.3,4.7-3.5,7c-1.7,0.9-3.7,1.6-5.2,2.8
		c-7.7,6.1-16.3,6.8-25.4,4.3c-9.9-2.8-15.6-10.1-19.4-19.1c-3.2-16.6,3.3-28.3,18.1-35.8c8.1-1.8,16-1.4,23.6,1.9
		c0.9,1.3,2,2.3,3.7,2.3c0,0,0.2,0.2,0.2,0.2c3.9,4.3,7.3,8.9,10.2,13.9c1.5,2.5,3.9,1.3,5.8,1.3c17.1,0.1,34.2,0.2,51.3,0
		c12.2-0.2,22.2,4.1,30.5,13c3.9,4.2,7.6,8.7,12.6,11.9c0,0,0.1,0,0.1,0c0.1,0.7,0.5,1.1,1.2,1.1l0.1,0.1c3.2,3.1,7.3,3.8,11.5,3.8
		c18.4,0.1,36.8,0.1,55.2,0c3.7,0,7.2-0.7,9.9-3.6c0.3-0.3,0.6-0.6,1-0.9c4.1-2.2,7.2-5.4,10.1-8.9c1-0.9,2.1-1.6,2.9-2.6
		c8.7-9.5,19.1-14.7,32.2-13.9c6.8,0.4,13.6,0.1,20.5,0c1.3,0,3,0.6,3.6-0.8c0.5-1.3-0.8-2.3-1.7-3.3c-8.2-8.5-16.4-17-24.6-25.4
		c-3.6-3.8-8.2-5.9-13.3-5.9c-19.1-0.2-38.3-0.1-57.4-0.1c-2,0-3.6,0.6-4.4,2.5c-1.6,4-4.7,6.8-7.2,10.1c-1.6,0.1-2.5,1.2-3.2,2.5
		l0,0c-9.2,4.6-18.6,5.9-28.2,1.2c-19.8-9.7-21.8-37.3-3.6-49.8C162.6,4,163.7,3.1,164.8,2.2L164.8,2.2z M177.8,16.2
		c-7,0-12.7,5.7-12.9,12.7c-0.1,6.7,6,12.6,12.9,12.6c6.8,0,12.5-6,12.6-12.9C190.4,22,184.4,16.1,177.8,16.2z M41.3,81.5
		c-0.1-6.7-5.8-12.2-12.6-12.2c-7,0-12.6,5.7-12.5,12.7c0.1,7.1,5.6,12.5,12.8,12.4C36,94.3,41.4,88.6,41.3,81.5z"/>
	<path class="st0" d="M1115.3,235.7c-9.1,0.7-17.1-2.2-24.1-7.9c0,0-0.1-0.1-0.1-0.1c-2-3-4.3-5.9-5.8-9.2c-1-2.1-2.2-2.5-4.2-2.5
		c-18.8,0.1-37.5,0.1-56.3,0.2c-3.7-0.9-7.7-0.2-11.2-2.1c-6.4-3.7-12.4-7.9-17.3-13.5c-3-3.5-5.6-7.3-9.7-9.6c0,0-0.3,0-0.3,0
		c-0.3-0.9-0.4-2-1.7-2c-0.3-0.3-0.6-0.6-0.9-0.9c-2.5-4-5.7-7.4-9.6-10.2c-2.5-4.5-6.6-7.6-10.3-11c-0.3-1.1-0.9-1.8-2.1-1.8
		l-0.2-0.3l-0.4,0.1c-1.1-0.2-2.2-0.6-3.4-0.6c-35,0-70,0-105,0c-0.7-0.1-1.4-0.2-2.2-0.3c-0.4-0.4-0.8-0.6-1.3-0.2
		c-0.3-1.6-1.5-2.7-2.5-3.9c-0.4-1.9-1.7-3.7-1-5.8c1.7-0.8,1.9-2.5,2.2-4c1.2,0,2.2-0.4,2.8-1.6c2.7-0.1,5.3-0.3,8-0.3
		c24.3-0.1,48.6-0.2,72.9-0.3c26.9,0.1,53.9,0.1,80.8,0.3c6.6,0.1,12-2.1,16.4-6.8c1.9-2,4.2-3.8,6-6c9.8-11.8,22.1-18.4,37.8-17.4
		c14.8,0.1,29.6,0.3,44.4,0.2c9.9-0.1,19.1,1.8,27.3,7.5c0.3,0.2,0.7,0.4,1,0.6c2.6,2.8,5.3,5.4,7.8,8.3
		c8.3,9.6,17.8,16.2,31.4,13.4c14.6,0.1,29.1,0.1,43.7,0.2c2.1,0,3.4-0.5,4.1-2.6c0.7-2,1.7-3.9,2.6-5.8c1.9-2.2,3.8-4.5,5.7-6.7
		c0.7-0.1,1.6,0,2-0.9c0.8-0.1,1.6-0.3,2-1.2c0.4-0.2,0.8-0.5,1.1-0.7c3.2-0.9,6.5-1.8,9.7-2.7c17.9,0.5,28.6,8.4,31.6,23.7
		c2.3,11.6-2.4,20.7-10.9,28.3c0,0-0.1,0.1-0.1,0.1c-2.4,1.3-4.7,2.5-7.1,3.8c0,0-0.1,0.1-0.1,0.1c-6.7,2-13.5,1.8-20.2,0.2
		c-7.7-4-14-9.3-17.1-17.7c-0.9-2.5-3.4-1.7-5.3-1.7c-16.6-0.1-33.2-0.1-49.8,0c-5.5,0-10.8-0.5-15.9-2.6
		c-5.3-2.6-9.6-6.5-13.7-10.6c-1.2-1.2-2.2-2.9-4-3.5l-0.1,0c0-1.2-0.7-1.7-1.8-1.8l0-0.1c-0.7-0.6-1.5-1.2-2.2-1.8
		c-0.8-1.5-1.5-3-3.5-3.2l0-0.1c-3.3-5-8.4-6.2-13.9-6.2c-17.8-0.1-35.7,0-53.5,0c-6.2,0-11.7,2-16,6.8c-2.3,2.6-5.1,4.8-7.4,7.4
		c-9.7,11.4-21.8,17.1-37,15.9c-5.3-0.4-10.7-0.2-16-0.1c-1.9,0-3.9-0.5-5.9,0.9c0.4,0.6,0.6,1.3,1,1.7c9,9.3,18,18.7,27.1,27.9
		c3.1,3.1,7.2,4.9,11.7,5c18.2,0.1,36.3,0,54.5,0.1c2.1,0,3.5-0.6,4.2-2.6c3.4-10,11.1-15.3,20.4-18.8c2-0.2,4-0.3,6-0.5
		c0.7,0,1.3,0,2,0c23.6,2.6,33,25.2,24.3,42.1C1132.4,229,1124.7,233.6,1115.3,235.7z M1124,207c0-7.1-5.6-12.8-12.5-12.8
		c-6.9,0.1-12.6,5.9-12.6,12.9c0,6.7,5.5,12.3,12.4,12.4C1118.3,219.7,1123.9,214.1,1124,207z M1258.9,144
		c-6.9,0-12.4,5.4-12.4,12.2c-0.1,7.2,5.3,12.7,12.6,12.7c6.8,0,12.4-5.4,12.5-12.3C1271.7,149.6,1266.1,144,1258.9,144z"/>
	<path class="st0" d="M1084,8.3c9-7.4,19-10.6,30.3-6.7c14.9,5.2,22.2,18.8,18.8,34.4c-0.2,0.8-0.2,1.6-0.3,2.5
		c-1.5,2.7-2.9,5.4-4.4,8.2c0,0-0.1,0.1-0.1,0.1c-7.2,7.6-15.9,11.6-26.4,11.4c-9.7-2.8-18.3-7.4-22.7-17c-2-4.2-4.7-4.4-8.5-4.3
		c-34.6,0.1-69.3,0-103.9,0.1c-2,0-4,0.3-5.9,0.5c-0.8-0.2-1.6,0-2.1,0.7c-1.1,0.1-2.4-0.3-3,1.1c-5.9,2.6-9.9,7.6-14.3,12
		c-7.7,7.8-16.1,14-27.2,15.8c-1.5-0.1-3-0.3-4.4-0.3c-20.9,0-41.9,0-62.8-0.1c-1.4-0.2-2.8-0.5-4.1-0.7
		c-6.2-2.7-12.3-5.5-17.1-10.6c-3.2-3.4-6.4-6.7-9.6-10.1c-5.7-6.1-12.5-8.5-20.9-8.5c-46.6,0.2-93.2,0.1-139.8,0.1
		c-2.9,0-6-0.5-8.7,1.3l-0.1-0.1c-3.3-0.1-6.6,0.1-9.4,2.1c-2.1-0.2-4.4,0.1-5.3,1.9c-1,2.1,1.8,2.7,2.8,4.1
		c0.5,0.8,1.4,1.4,2.1,2.1c15,16,33.1,28.9,45.9,47c0.1,1.7,0.7,3.1,1.8,4.3c-0.1,0.3,0,0.5,0.2,0.7c0.1,1.2,0,2.4,0.3,3.5
		c4.2,16.4-2.3,33.1-16.5,42.6c-14,9.3-33,9.1-45.8-1.1c-9.7-7.8-18.9-16.2-28.2-24.5c-5.2-4.6-4.9-4.7-9.8,0.2
		c-14,14-27.4,28.4-41.7,42.2c-18.2,17.5-35.7,35.6-53.5,53.6c-7.1,7.2-7.2,18.5-0.4,25.2c7.2,7.1,18.2,7.2,25.6,0.2
		c2.2-2.1,4.1-4.4,6.3-6.4c4.5-4.1,8.7-4.3,12.3-0.5c3.2,3.4,2.7,8.4-1.2,12.4c-2.6,2.6-5.2,5.1-7.5,8c-5.6,7-5.2,16,1,22.8
		c5.7,6.3,14.9,7.4,22.3,2.9c4.2-2.6,7-6.6,10.7-9.7c3.5-2.9,8.1-2.9,11.2,0.1c3,2.9,3,7.8,0,11.2c-2.5,2.7-5.3,5.1-7.6,7.9
		c-6.5,7.5-6.2,18.4,0.6,24.8c7.5,7,17.4,6.8,25-0.5c2.4-2.3,4.6-4.8,7.1-6.9c3.6-3.1,8.2-3.1,11.3-0.1c3.4,3.2,3.5,7.1,0.2,11.1
		c-2.2,2.7-4.8,5-7.1,7.7c-7.2,8.2-6.8,18.8,0.8,25.9c7.2,6.7,17.7,6,25.5-1.7c4.7-4.7,9.1-9.7,14.1-14c3.7-3.2,3-5.2-0.1-8.2
		c-9.4-9.2-18.9-18.3-27.8-27.9c-9.6-10.4-11.4-22.8-6.2-35.7c5.2-12.8,15.4-19.6,29.2-20.6c3-0.2,4.5-0.8,4.7-4.2
		c1.2-18.6,16.3-32.7,32.8-32.5c2.8,0,3.8-1.1,3.8-3.9c0.4-17.2,14.6-32.3,32.6-32.7c2.6-0.1,3.1-1,3.5-3.6
		c0.5-4.3,1.4-8.6,3.1-12.7c4.9-11.6,14.4-17.2,25.9-20.4c6.6-0.7,13,0.9,19.4,2.2l0.1,0.1c3.3,2.7,7.2,4.6,10.2,7.6
		c10.2,10.3,20.3,20.6,30.7,30.7c8.7,8.4,16.7,17.6,26,25.3c1.5,1.9,3.6,1.4,5.5,1.4c21.9,0,43.8-0.4,65.7,0.2
		c7.8,0.2,13.1-1.4,14.9-9.4c0.4-0.5,0.7-0.9,1.1-1.4c1.5-1.6,3-3.1,4.4-4.7c0.4-0.3,0.7-0.6,1.1-0.9c0.4-0.1,0.8-0.3,1.1-0.4
		c3.6-1.3,7.1-2.7,10.7-4c0.3,0,0.5-0.1,0.8-0.1c3.1,0,6.3-0.1,9.4-0.1c2.8,1.5,5.7,2.7,8.8,3.3c1,0.7,2,1.4,3.1,2.1
		c1.3,1,2.5,2.1,3.8,3.1c0.4,0.3,0.7,0.7,1.1,1c1.3,1.8,2.5,3.5,3.8,5.3c-0.1,0.3,0.1,0.6,0.4,0.7c3,7.7,3.4,15.6,1.4,23.6
		c-1.2,1-1.9,2.2-1.6,3.9l-0.1,0.1c-1.4,2-4,3.1-4.5,5.9c-1.1,0.2-1.6,1-1.8,2.1c-4,2.1-8,4.2-11.9,6.4c-9.8,1.3-18.8-0.7-26.9-6.3
		c-1.9-2.7-4.5-5.1-5.5-8.1c-2-6-6.1-6.5-11.2-5.5c-0.7,0-1.3,0-2,0c-16.6-0.4-33.2-0.5-49.9,0c-1.6-0.6-3.2,1.2-5.1-0.1
		c-1.3-0.8-2.9,0.1-2.9,2.1c0.1,1,0.2,2,0.3,3c1.3,7.3-0.2,14.2-2.5,21l-0.2,0.3c-3.7,6.7-9.1,11.7-15.6,15.7c0,0-0.1,0.1-0.1,0.1
		c-3.6,1-7.1,2.7-11,2.7c-5.1-0.1-8.3,1.2-7.2,7.3c0.2,1.2-0.5,2.6-0.7,3.8c-2.1,9.8-8.5,16.5-16.3,22.1c-3.7,1.3-7.4,2.6-11.2,3.8
		c-1.5,0-2.9,0.2-4.4,0c-3.2-0.3-4.1,1.2-3.3,4c0,0.7-0.1,1.4-0.1,2.1c-1.6,6.6-3.5,13.1-8,18.5c-3.7,3.6-7.8,6.6-12.1,9.4
		c0,0,0.1-0.1,0.1-0.1c-4.8,0.9-9.4,2.9-14.5,2.5c-1.7-0.2-2.5,0.9-2.4,2.4c0.2,5.4-1.7,10.3-3.1,15.3l-0.1,0.3
		c-3.2,5.2-7.4,9.6-12,13.6l0,0c-10.3,5.4-20.9,6.6-31.9,2.8l0.1,0.3c-0.1-0.7-0.5-0.8-1.1-0.7c-0.3-0.1-0.7-0.2-1-0.3
		c-1.6-2-4-2.6-6.1-3.9l-0.1-0.3l-0.3,0c-2.4-2.5-4.4-5.5-7.5-7.3c0-0.4-0.2-0.6-0.6-0.6c-0.5-1-1.2-1.9-2.4-2.1l0-0.1
		c-2.5-4-6.5-6.5-9.4-10.1c-1.2-1.6-2.1-1-3.2,0c-3.5,3.2-7,6.5-9.7,10.4c-4.3,2.7-7.4,6.7-10.9,10.3c-4,1.9-8,3.9-12,5.8
		c0,0-0.1,0-0.1,0c-1.4-0.1-2.8,0-4,0.9c-8.5,0.9-16.4-1.3-23.9-5l0,0c-2.7-2.4-5.3-4.8-8-7.2c-3.6-3.6-3.4-9.2-6.9-12.8
		c-0.7-3.7,1.5-7.8-1.5-11.2c-2.1-0.8-4.3-0.6-6.5-0.5c-0.8-0.1-1.5-0.2-2.3-0.3c-2.1-1.2-4.3-1.9-6.7-2.1
		c-12.5-7-19.9-17.1-20-31.8c0-2.8-2-2-3.5-2.1c-20.3-1.5-32-15-33.3-34.8c-0.1-2.1-1.1-1.7-2.1-1.5c-4.6,0.8-8.7-1.1-13-1.8
		c-3.4-2.5-7.2-4.7-10.2-7.6c-9.4-8.9-12.7-20-10-32.7c0.7-3.2,0.1-4.1-3.2-3.9c-5.6,0.3-11.3,0.2-16.9,0.3c-3.6-0.4-7.2-0.4-10.8,0
		c-9.4-0.8-17.9-4-25.2-10l0,0c-4.9-6-10.5-11.4-16.4-16.5c-3.1-2.7-6.9-3.8-11.1-3.8c-20.1,0-40.2,0-60.3,0.2
		c-5.2,0-9.6,2.2-12.7,6.6l-0.1,0c-1.9,0.7-3.2,2-4.1,3.7l-0.3,0l-0.1,0.3c-5.1,4.5-10.1,9-15.2,13.5c-1.4,0.8-2.8,1.6-4.2,2.3
		c-8.2,3.5-16.8,3.4-25.4,3.4c-12.8,0-25.6,0.2-38.4,0.2l-0.1,0c-5-1-8.5-0.1-10.6,5.6c-1.9,5.3-6.9,8.6-11.6,11.7
		c-2.1,0.6-4.3,0.9-5.8,2.6c0,0-0.1-0.2-0.1-0.2c-12.1,1.5-22.8-0.5-30.5-11.1c-7.5-10.4-7.7-23.1-0.5-33.6c0.6-0.8,0.9-1.7,1.4-2.6
		c2.6-2.1,5.2-4.2,7.8-6.3c0.3,0,0.6-0.1,0.9-0.3c15.9-7.4,34-0.5,39.9,14.7c1.3,3.4,4,3,6.6,3c14.8,0,29.6-0.8,44.4,0.2
		c13.3,0.8,21.9-5.7,29.4-15.2c0,0,0-0.1,0-0.1c0.8-0.1,1.1-0.5,1.2-1.2l0,0.3c1.2-0.1,1.6-1.1,2.1-1.9l0,0c2-1.2,3.6-2.9,5.1-4.7
		c0.3-0.1,0.4-0.2,0.3-0.5c1.2-0.7,2.4-1.4,3.5-2.1c0.3,0.1,0.4,0,0.5-0.3c1.5,0,2.6-0.8,3.6-1.7c6.5-2.3,13.2-2.9,20.1-2.9
		c14,0.1,27.9,0.3,41.9,0c11.4-0.3,22.4,0.4,32.3,6.9c3,3.6,6.5,6.8,10.2,9.7c3.6,3.9,6.5,8.5,11.8,10.5c0.8,1.6,2.1,1.8,3.7,1.6
		c1.5,1.4,3.4,1.3,5.2,1.3c13.6,0.1,27.2,0,40.8,0c1.5,0,3,0,4.1-1.3c10.1-8.9,19.4-18.7,28.6-28.5c3.3-2.7,6.6-5.5,9-9.1
		c0.7-0.2,1.1-0.6,1-1.4l-0.1,0.1c0.8,0.1,1.3-0.4,1.6-1.1c0.8-0.6,1.6-1.2,2.3-1.9c18.1-18.3,36.2-36.5,54.2-54.8
		c0.9-0.7,1.8-1.4,2.7-2.2c6.4-6.1,8.9-6.1,15.6-0.3c5.9,5.1,11.8,10.2,17.7,15.2c4,5.1,9.4,8.8,14.1,13.2
		c10.5,10,25.6,9.7,35.2-0.5c8.9-9.5,7.7-24.7-2.5-34.4c-7.5-7.1-14.7-14.4-22.4-21.2c-7.7-6.8-14.1-15-22.4-21l-0.2-0.2
		c-1.4-1.9-3.1-3.5-5.6-4.1l-0.2-0.1c-0.3-0.9-1-1.4-1.9-1.4c-0.4-0.2-0.7-0.5-1.1-0.7c-3.9-2.9-8.2-4.8-13-5.7
		c-7.2-2.9-14.8-3.3-22.4-3.3c-59.6,0-119.3,0.1-178.9-0.1c-8.4,0-14.3,0.7-19.1,9.4c-5.4,10-16.1,13.1-27.4,11
		c-11.7-2.2-19.9-9.4-23-20.8c-4-14.7,4.3-29.3,18.4-34.5c13.9-5,28.8,0.9,35.6,14.7c1.6,3.3,3.5,4.2,6.8,4.2
		c50.8-0.1,101.6-0.1,152.4-0.1c13.1,0,26.3-0.2,39.4-0.3c5.3,0.7,10.6,1.3,15.8,2c4.4,0.6,8.3,3.4,13,3c2.4,2.7,5.7,3.8,8.9,4.9
		c2.6,1,5.2,0.1,6.4-2.9c4.9-0.4,9.2-2.5,13.7-4.4c7.5-1.3,15.1-2.5,22.8-2.5c46.8,0.1,93.5,0.1,140.3,0.1c9.1,0,17.5,2.4,24.6,8.2
		c3.1,2.5,5.8,5.4,8.7,8.2c2.3,2.8,4.6,5.5,7.6,7.5c1.8,3.2,5.1,3.7,8.2,4.7c1.6,0.3,2.9,1.5,4.6,1.4c12.1-0.2,24.2-0.2,36.3-0.3
		c6.8,0.1,13.6-0.1,20.4,0.3c9,0.6,15.3-3.9,20.7-10.3l0,0c5.4-4.8,10.7-9.6,16.1-14.4c2.6-1.2,5.2-2.4,7.8-3.6
		c6.2-1.3,12.4-1.7,18.8-1.6c33.9,0.1,67.8,0.1,101.7,0.1c1.8,0,4.1,0.7,4.8-1.5C1079.4,15.1,1082.4,12.1,1084,8.3z M636.4,260.1
		c-6.6,0.5-12.1,3.1-15.4,9.2c-3.2,6-3.1,12.1,0.6,18.1c1.9,3,4.6,5.2,7.1,7.7c19.1,19.1,38.2,38.3,57.5,57.2c6.6,6.5,18,6,24.4-0.5
		c6.6-6.8,6.8-18.1,0.2-24.8c-20.5-20.6-41.1-41.1-61.6-61.6C645.7,261.9,641.4,260.3,636.4,260.1z M825.4,229.6
		c-0.1-1.2-0.2-2.3-0.3-3.5c-0.7-5.7-4.7-9.3-8.5-13c-19.4-19.3-38.6-38.7-58.1-57.9c-7.1-7-17.4-6.5-24.6,0.4
		c-6.7,6.5-7.3,17.5-0.6,24.3c20.7,21,41.6,41.8,62.6,62.5c5.6,5.5,12.7,6.1,19.5,3C821.7,242.6,825.5,237.1,825.4,229.6z
		 M788.8,267.8c0-7.1-2.1-11.4-5.8-15.1c-20.1-20.1-40.1-40.2-60.3-60.2c-3.5-3.5-7.9-5.6-13-5.4c-7.8,0.2-13.5,4-16.3,11
		c-2.8,7-1.6,13.8,3.9,19.3c11.4,11.6,23,23,34.5,34.5c9.1,9.1,18.1,18.4,27.5,27.3c5.4,5.1,12.1,6.2,19,3
		C785.3,279.1,788.5,273.5,788.8,267.8z M673.4,223.8c-3.9-0.1-7.4,0.8-10.7,3.3c-9.3,7.2-9.8,19.1-0.8,28.1
		c14.5,14.6,29.2,29.2,43.8,43.7c6.1,6.1,12,12.5,18.6,18c7.2,6,17.6,4.3,24.1-3.1c5.4-6.1,5.3-16.9-0.6-22.9
		c-20.5-20.7-41.2-41.3-61.8-61.9C682.5,225.5,678.4,223.6,673.4,223.8z M937.5,197.1c-7.2-0.3-13,4.9-13.2,12
		c-0.2,7.1,5.2,12.9,12.1,13.1c7,0.2,12.7-5.2,12.9-12.3C949.6,202.9,944.4,197.4,937.5,197.1z M188.7,222.2
		c7.3,0.1,13.1-5.4,13.1-12.7c0-6.8-5.5-12.3-12.3-12.4c-7.2-0.1-12.7,5.3-12.7,12.4C176.7,216.5,182,222.1,188.7,222.2z M364.8,29
		c0.1-7-5.5-12.8-12.4-12.8c-6.9-0.1-12.6,5.6-12.7,12.7c-0.1,6.6,5.6,12.3,12.3,12.5C358.9,41.5,364.7,36,364.8,29z M1117.9,29
		c0.1-7-5.5-12.7-12.5-12.8c-6.9-0.1-12.7,5.6-12.7,12.7c0,7.1,5.5,12.5,12.7,12.5C1112.1,41.3,1117.8,35.7,1117.9,29z"/>
	<path class="st0" d="M261.7,168.4c-5.6,1-11.3,0.9-16.9,0.9c-42.5,0-84.9,0-127.4-0.1c-4,0-6.5,0.6-8.4,4.7
		c-5.6,12-22.2,22.1-41,11.9c0,0-0.1,0.1-0.1,0.1c-2.4-2.2-4.8-4.3-7.2-6.5l-0.1-0.2c-0.3-0.4-0.5-0.7-0.8-1.1c0,0,0,0,0,0
		c-0.3-0.4-0.6-0.8-0.8-1.2l0,0.1c-0.3-1.6-1-3-2.2-4.1c-0.3-1-0.5-1.9-0.8-2.9c-3.3-11.3-0.9-21.2,7.5-29.7
		c4.5-4.5,10.3-6.5,16.2-8.2c0,0,0,0,0,0c0.3,0,0.7,0,1-0.1c14.7-0.1,24.7,6.8,30.5,20.1c1.5,1.5,3.5,0.9,5.2,0.9
		c44.7,0,89.3-0.1,134,0.1c7.5,0,13.6-2.4,18.6-7.9c3.8-4.1,7.9-8.1,12-12c6.9-6.6,15.1-10.2,24.7-10.2c47,0,94,0,141,0
		c2.1,0,4.3-0.2,6.4,0.8c3.5,1.6,5.7,4.2,5.3,8.1c-0.5,4.1-3.2,6.4-7.2,7c-2.5,0.4-5,0.3-7.5,0.3c-46,0-92,0-138,0
		c-4.8,0-9.1,1.6-12.6,4.9c-4.1,3.9-8.2,7.8-12.1,11.9C275.7,161.9,269.4,166.1,261.7,168.4z M70.9,161.1c0,6.9,5.8,12.7,12.7,12.7
		c6.8,0,12.5-5.8,12.4-12.8c0-7-5.7-12.5-12.8-12.4C76.6,148.5,70.9,154.4,70.9,161.1z"/>
	<path class="st0" d="M807.4,114.4c-0.3-0.3-0.6-0.6-0.9-0.9c-0.2-0.8-0.8-1.2-1.6-1.5c-2.7-8.2,0-12.7,8.5-12.9
		c14.1-0.3,28.3-0.1,42.4-0.1c33.8,0,67.5-0.1,101.3,0.1c3.9,0,6.4-1.2,7.5-4.8c1.2-3.9,4-6.8,6.3-10c0,0,0-0.1,0-0.1
		c2.5-1.8,5.1-3.6,7.6-5.4c0.4-0.2,0.8-0.4,1.3-0.6c6-0.8,11.9-2.5,18.2-0.9c14.8,3.9,24.5,18.8,21.4,33.5
		c-3.3,15.4-17.7,25.4-33,22.9c-4.7-0.8-9.1-2.5-13-5.3c-3.3-3.3-6.5-6.5-8.5-10.8c-1.4-3-4-2.4-6.4-2.4c-44.4,0-88.8,0.1-133.3,0
		C819.3,115.2,813.3,115.9,807.4,114.4z M1003.7,105.3c-0.1-6.7-5.8-12.6-12.3-12.6c-7-0.1-12.9,5.7-12.9,12.5
		c0,7.1,5.6,12.8,12.5,12.8C998,118,1003.8,112.2,1003.7,105.3z"/>
</g>
</svg>
