<?xml version="1.0" encoding="utf-8"?>
<!-- Generator: Adobe Illustrator 23.0.2, SVG Export Plug-In . SVG Version: 6.00 Build 0)  -->
<!DOCTYPE svg PUBLIC "-//W3C//DTD SVG 1.1//EN" "http://www.w3.org/Graphics/SVG/1.1/DTD/svg11.dtd" [
	<!ENTITY ns_extend "http://ns.adobe.com/Extensibility/1.0/">
	<!ENTITY ns_ai "http://ns.adobe.com/AdobeIllustrator/10.0/">
	<!ENTITY ns_graphs "http://ns.adobe.com/Graphs/1.0/">
	<!ENTITY ns_vars "http://ns.adobe.com/Variables/1.0/">
	<!ENTITY ns_imrep "http://ns.adobe.com/ImageReplacement/1.0/">
	<!ENTITY ns_sfw "http://ns.adobe.com/SaveForWeb/1.0/">
	<!ENTITY ns_custom "http://ns.adobe.com/GenericCustomNamespace/1.0/">
	<!ENTITY ns_adobe_xpath "http://ns.adobe.com/XPath/1.0/">
]>
<svg version="1.1" id="Layer_1" xmlns:x="&ns_extend;" xmlns:i="&ns_ai;" xmlns:graph="&ns_graphs;"
	 xmlns="http://www.w3.org/2000/svg" xmlns:xlink="http://www.w3.org/1999/xlink" x="0px" y="0px" viewBox="0 0 1099.6 224.4"
	 style="enable-background:new 0 0 1099.6 224.4;" xml:space="preserve">
<style type="text/css">
	.st0{fill:#B2B2B2;}
</style>
<metadata>
	<sfw  xmlns="&ns_sfw;">
		<slices></slices>
		<sliceSourceBounds  bottomLeftOrigin="true" height="224.4" width="1099.6" x="-249.4" y="84.7"></sliceSourceBounds>
	</sfw>
</metadata>
<g>
	<g>
		<g>
			<g>
				<path class="st0" d="M706.5,106.3c-26.2,0-33.6-9.5-40.8-18.8c-5.3-6.8-10.3-13.3-25.1-17.3c-17.3-4.7-30.7-20-31.9-36.3
					c-0.9-12.7,5.7-23.5,17.9-29c5.6-3.4,11.3,1.2,17.3,6.1c5.4,4.4,12.9,10.4,21.4,13.6c6.4,2.4,12.9,1.4,20.4,0.4
					c9.4-1.3,20.2-2.9,33.1,1.7c1.4,0.5,2.8,1,4.2,1.5c23.1,8.3,41.3,14.9,86.3-14.9c3.2-2.1,7.6-1.3,9.7,2c2.1,3.2,1.3,7.6-2,9.7
					c-50.9,33.7-74.2,25.3-98.8,16.4c-1.3-0.5-2.7-1-4.1-1.5c-9.6-3.4-17.8-2.3-26.4-1c-8.6,1.2-17.5,2.5-27.2-1.1
					c-10.7-4-19.2-10.8-25.4-15.8c-1.4-1.2-3.1-2.5-4.3-3.4c-7.2,4-8.4,9.9-8.1,14.4c0.6,8.9,8.4,20.2,21.6,23.8
					c19.3,5.2,26.6,14.7,32.5,22.2c7.3,9.4,12.5,16.2,45.2,12.4c3.8-0.5,7.3,2.3,7.8,6.1c0.4,3.8-2.3,7.3-6.1,7.8
					C717.1,105.9,711.4,106.3,706.5,106.3z M634.2,16.6C634.2,16.6,634.2,16.6,634.2,16.6C634.2,16.6,634.2,16.6,634.2,16.6z"/>
			</g>
			<g>
				<path class="st0" d="M665.2,224.4c-6.4,0-12.5-3.1-16.4-8.6c-1.5-2.1-2.5-4.5-3-7l-21.1,12.3c-8.9,5.2-20.5,2.6-26.4-5.9
					l-0.2-0.4c-1.3-1.8-2.2-3.8-2.8-5.9l-9.7,6.3c-9.1,6-21.1,3.6-27.3-5.4l-0.2-0.2c-6.2-9-4.1-21,4.7-27.4l3.9-2.8
					c-1.6-1.3-3.1-2.8-4.3-4.5l-0.2-0.3c-5.9-8.6-4.2-20.4,3.9-26.9l93.3-78.4c3-2.5,7.4-2.1,9.9,0.9c2.5,3,2.1,7.4-0.9,9.9
					L575,158.6c-0.1,0-0.1,0.1-0.2,0.1c-2.4,1.9-3,5.4-1.2,8l0.2,0.3c0.9,1.3,2.3,2.2,3.9,2.5c1,0.2,2.1,0.1,3-0.3l62.7-45.6
					c3.1-2.3,7.5-1.6,9.8,1.5c2.3,3.1,1.6,7.5-1.5,9.8l-61.3,44.8c-0.8,0.6-1.7,1.1-2.6,1.6L571,193.7c-2.6,1.9-3.2,5.5-1.4,8.1
					l0.2,0.2c1.8,2.6,5.4,3.3,8.1,1.6l78.9-51.6c3.2-2.1,7.6-1.2,9.7,2c2.1,3.2,1.2,7.6-2,9.7l-53.3,34.9c-1.3,0.9-2.2,2.2-2.6,3.8
					c-0.3,1.6,0,3.2,0.9,4.5l0.2,0.4c1.7,2.5,5.2,3.3,7.8,1.7l69.5-40.5c3.3-1.9,7.6-0.8,9.6,2.5c2,3.3,0.8,7.6-2.5,9.6l-31.9,18.8
					c-1.4,0.8-2.4,2.2-2.8,3.8c-0.4,1.6,0,3.3,0.9,4.6c1.6,2.4,4.7,3.2,7.3,2c15.2-7,45.6-25.5,61.9-35.5l1.8-1.1
					c30.2-18.5,40.1-30.1,47.4-38.6c8.5-10,13.8-15.3,33.9-18.9c3.8-0.7,7.4,1.9,8.1,5.7c0.7,3.8-1.9,7.4-5.7,8.1
					c-16.1,2.8-18.7,5.9-25.7,14.1c-7.4,8.7-18.6,21.8-50.7,41.5l-1.8,1.1c-17.8,10.8-47.5,29-63.4,36.3
					C670.8,223.8,668,224.4,665.2,224.4z"/>
			</g>
		</g>
	</g>
	<g>
		<g>
			<g>
				<path class="st0" d="M434.9,81.8c-1.9,0-3.7-0.7-5.1-2.2c-2.7-2.8-2.6-7.2,0.3-9.9c6.4-6.1,14.2-10.3,24.5-13.1
					c13.1-3.6,20.9-14.9,21.6-23.8c0.3-4.5-0.9-10.5-8.1-14.4c-1.2,0.9-2.9,2.2-4.3,3.4c-6.2,5-14.7,11.9-25.4,15.8
					c-9.7,3.6-18.6,2.3-27.2,1.1c-8.6-1.2-16.7-2.4-26.4,1c-1.4,0.5-2.7,1-4.1,1.5c-24.6,8.9-47.9,17.3-98.8-16.4
					c-3.2-2.1-4.1-6.5-2-9.7c2.1-3.2,6.5-4.1,9.7-2c45,29.9,63.3,23.3,86.3,14.9c1.4-0.5,2.8-1,4.2-1.5c12.9-4.6,23.6-3.1,33.1-1.7
					c7.5,1.1,14,2,20.4-0.4c8.6-3.2,16-9.2,21.4-13.6c6-4.9,11.7-9.5,17.3-6.1c12.1,5.5,18.8,16.3,17.9,29
					c-1.2,16.4-14.6,31.6-31.8,36.3c-10.5,2.8-15.6,6.9-18.5,9.7C438.4,81.2,436.7,81.8,434.9,81.8z M464.7,16.6
					C464.7,16.6,464.7,16.6,464.7,16.6C464.7,16.6,464.7,16.6,464.7,16.6z"/>
			</g>
			<g>
				<path class="st0" d="M433.7,224.4c-2.8,0-5.6-0.6-8.3-1.8c-15.9-7.3-45.6-25.5-63.4-36.3l-1.8-1.1
					c-32.1-19.6-43.3-32.8-50.7-41.5c-7-8.2-9.6-11.3-25.7-14.1c-3.8-0.7-6.4-4.3-5.7-8.1c0.7-3.8,4.3-6.4,8.1-5.7
					c20.1,3.5,25.5,8.9,33.9,18.9c7.2,8.5,17.1,20.1,47.4,38.6l1.8,1.1c16.3,10,46.8,28.6,61.9,35.5c2.6,1.2,5.7,0.4,7.3-2
					c0.9-1.4,1.3-3,0.9-4.6c-0.4-1.6-1.3-3-2.8-3.8l-31.9-18.8c-3.3-2-4.4-6.2-2.5-9.6c2-3.3,6.2-4.5,9.6-2.5l69.5,40.5
					c2.6,1.5,6.1,0.8,7.8-1.7l0.2-0.4c0.9-1.3,1.2-2.9,0.9-4.5c-0.3-1.6-1.2-2.9-2.6-3.8l-53.3-34.9c-3.2-2.1-4.1-6.5-2-9.7
					c2.1-3.2,6.5-4.1,9.7-2l78.9,51.6c2.7,1.8,6.3,1.1,8.1-1.6l0.1-0.2c1.8-2.7,1.2-6.2-1.4-8.1l-16.9-12.3c-0.9-0.5-1.7-1-2.6-1.6
					L447.1,135c-3.1-2.3-3.8-6.7-1.5-9.8c2.3-3.1,6.7-3.8,9.8-1.5l62.7,45.6c1,0.4,2,0.5,3,0.3c1.6-0.3,3-1.1,3.9-2.5l0.2-0.3
					c1.8-2.6,1.2-6.1-1.2-8c-0.1,0-0.1-0.1-0.2-0.1L418.6,70.3c-3-2.5-3.3-6.9-0.9-9.9c2.5-3,6.9-3.3,9.9-0.9l105.2,88.2
					c8.1,6.5,9.9,18.3,3.9,26.8l-0.2,0.4c-1.2,1.7-2.7,3.3-4.3,4.5l3.9,2.8c8.8,6.4,10.9,18.4,4.7,27.4l-0.1,0.2
					c-6.2,9-18.2,11.3-27.3,5.4l-9.7-6.3c-0.6,2.1-1.5,4-2.8,5.9l-0.2,0.4c-5.9,8.5-17.5,11.1-26.4,5.9l-21.1-12.3
					c-0.6,2.5-1.6,4.9-3,7C446.2,221.3,440.1,224.4,433.7,224.4z"/>
			</g>
		</g>
	</g>
</g>
<g>
	<path class="st0" d="M206,9.4c-4,0-7.4,3.3-7.4,7.4c-0.1,3.8,3.2,7.2,7.2,7.3c4.1,0.1,7.5-3.1,7.5-7.2C213.3,12.9,210,9.5,206,9.4z
		"/>
	<path class="st0" d="M36.7,52.6c10.3,0.1,20.6,0.1,30.9,0c3.5,0,6.4,1.2,8.9,3.7c2.6,2.5,5.1,5.1,7.7,7.6c4.1,4,9,6.2,14.8,6.3
		c4.8,0,9.5,0.1,14.3,0.1c7,0,14-0.1,21-0.1c0.9-0.5,1.9-0.6,2.9-0.6c0.4-0.6,1.1-0.5,1.7-0.5c0.5-0.5,1.1-0.6,1.7-0.6
		c0.1-0.4,0.3-0.5,0.7-0.5c3.8-2.5,7.2-5.6,10.1-9.1c4.7-5.7,10.6-6.9,17.4-6c0.2-0.1,0.3-0.1,0.5,0c1.4,0,2.8,0,4.2,0
		c1.5,0,3.1,0,4.6,0c1.4,0,2.8,0,4.2,0c4,0,8-0.1,11.9-0.1c22.4,0,44.9,0,67.3,0c5.8,0,7.7-2.8,5.4-8.1c-2-1.6-4.3-1.3-6.6-1.3
		c-21.2,0-42.5,0-63.7,0c-2.6,0-4.5-0.6-6.3-2.6c-6.7-7.2-13.6-14.2-20.4-21.2c-3.8-4-8.6-5.9-14-6.6c-8.4,0-16.8,0-25.2,0
		c-1.3,0-2.7,0-4,0c-1.4,0-2.8,0-4.1,0c-1.3,0.4-2.3,0.1-2.8-1.2C116.4,3.1,110-0.4,101,0c-1.6,0.4-3.1,0.8-4.7,1.3
		c-0.7,0.5-1.3,1-2,1.5c-10.7,7.3-9.5,23.5,2.1,29.1c5.6,2.7,11.1,2,16.5-0.7l0,0c0.4-0.8,0.9-1.4,1.9-1.5c1.5-1.9,3.3-3.6,4.2-5.9
		c0.5-1.1,1.4-1.5,2.6-1.5c11.2,0,22.4,0,33.6,0.1c3,0,5.7,1.3,7.8,3.5c4.8,5,9.6,9.9,14.4,14.9c0.5,0.6,1.3,1.2,1,1.9
		c-0.3,0.9-1.4,0.5-2.1,0.5c-4,0-8,0.2-12,0c-7.7-0.4-13.8,2.6-18.8,8.1c-0.5,0.6-1.1,1-1.7,1.5c-1.7,2-3.5,3.9-5.9,5.2
		c-0.2,0.2-0.4,0.3-0.6,0.5c-1.6,1.7-3.6,2.1-5.8,2.1c-10.7,0-21.5,0.1-32.2,0c-2.4,0-4.8-0.4-6.7-2.2l0-0.1c-0.4,0-0.7-0.2-0.7-0.6
		c0,0,0,0,0,0c-2.9-1.8-5.1-4.5-7.4-6.9c-4.9-5.2-10.7-7.7-17.9-7.6c-10,0.2-20,0.1-30,0c-1.1,0-2.5,0.7-3.4-0.7
		c-1.7-2.9-3.7-5.7-6-8.1c0,0-0.1-0.1-0.1-0.1c-1,0-1.6-0.6-2.2-1.3c-4.5-1.9-9.1-2.2-13.8-1.1C2.4,36.1-1.4,43,0.5,52.7
		C2.7,58,6,62.3,11.8,63.9c5.3,1.5,10.3,1.1,14.8-2.5c0.9-0.7,2-1.1,3-1.6c0.7-1.4,1.7-2.6,2-4.1C32.3,52.8,34.2,52.6,36.7,52.6z
		 M104,24.2c-4,0-7.6-3.5-7.5-7.4c0.1-4.1,3.4-7.4,7.5-7.4c3.9,0,7.4,3.4,7.4,7.2C111.3,20.7,107.9,24.2,104,24.2z M17,55.2
		c-4.2,0-7.4-3.1-7.5-7.2c-0.1-4.1,3.2-7.4,7.3-7.4c4,0,7.3,3.2,7.4,7.1C24.2,51.8,21,55.1,17,55.2z"/>
	<path class="st0" d="M225.1,12.1c-2,0-3-0.5-4-2.4c-4-8.1-12.7-11.6-20.8-8.6c-8.3,3-13.1,11.5-10.8,20.2
		c1.8,6.7,6.6,10.9,13.4,12.2c6.6,1.2,12.8-0.6,16-6.4c2.8-5.1,6.3-5.5,11.2-5.5c18.8,0.1,37.7,0.1,56.5,0.1l2.1-9.5
		C267.5,12,246.3,12.1,225.1,12.1z M205.7,24.2c-4-0.1-7.3-3.5-7.2-7.3c0.1-4.1,3.4-7.4,7.4-7.4c4,0,7.3,3.4,7.3,7.5
		C213.2,21.1,209.8,24.3,205.7,24.2z"/>
	<path class="st0" d="M255.7,117.8c-1,0-2.2,0-3-0.8c-0.9,0.1-1.7,0-2.2-0.9c-3.1-1.1-4.8-3.9-6.9-6.1c-2.2-1.7-4.2-3.6-6-5.7
		c-5.8-3.8-12.2-4.2-18.9-4c-8.2,0.2-16.3,0.1-24.5,0c-4,0-7.9,0.3-11.7,1.7c-0.6,0.6-1.2,1-2.1,1c0,0.1-0.1,0.2-0.3,0.2
		c-0.7,0.4-1.4,0.8-2.1,1.2c0,0.2,0,0.3-0.2,0.3c-0.9,1.1-1.8,2-3,2.7l0,0c-0.3,0.5-0.6,1.1-1.3,1.1l0-0.2c-0.1,0.4-0.3,0.7-0.7,0.7
		c0,0,0,0.1,0,0.1c-4.4,5.5-9.4,9.3-17.2,8.9c-8.6-0.5-17.3-0.1-25.9-0.1c-1.5,0-3.1,0.2-3.8-1.8c-3.4-8.9-14-12.9-23.3-8.6
		c-0.2,0.1-0.3,0.2-0.5,0.2c-1.5,1.2-3,2.5-4.6,3.7c-0.3,0.5-0.5,1-0.8,1.5c-4.2,6.1-4.1,13.5,0.3,19.6c4.5,6.2,10.8,7.4,17.8,6.5
		c0,0,0.1,0.1,0.1,0.1c0.9-1,2.2-1.2,3.4-1.5c2.7-1.8,5.7-3.7,6.8-6.8c1.2-3.3,3.2-3.9,6.2-3.3l0.1,0c7.5-0.1,15-0.2,22.4-0.1
		c5.1,0,10.1,0.1,14.9-2c0.8-0.5,1.6-0.9,2.5-1.4c3-2.6,5.9-5.3,8.9-7.9l0.1-0.2l0.2,0c0.5-1,1.3-1.8,2.4-2.2l0,0
		c1.8-2.6,4.4-3.8,7.4-3.9c11.7-0.1,23.5-0.1,35.2-0.1c2.4,0,4.6,0.6,6.5,2.2c3.4,3,6.7,6.1,9.6,9.6l0,0c4.3,3.5,9.2,5.4,14.7,5.9
		c2.1-0.2,4.2-0.2,6.3,0c0.3,0,24.1-0.2,24.4-0.2l-1.6-9.7C281.9,117.6,259,117.8,255.7,117.8z M110.3,129.9c-3.9-0.1-7-3.3-7-7.4
		c0-4.2,3.2-7.3,7.5-7.3c4,0.1,7.2,3.3,7.2,7.3C117.9,126.7,114.6,129.9,110.3,129.9z"/>
	<path class="st0" d="M153,98.5c4.5-1.3,8.2-3.8,11.4-7.2c2.2-2.4,4.6-4.7,7.1-7c2.1-1.9,4.6-2.9,7.4-2.8c26.9,0,53.8,0,80.7,0
		c1.5,0,2.9,0.1,4.4-0.2c2.3-0.3,4-1.7,4.2-4.1c0.3-2.3-1-3.8-3.1-4.7c-1.2-0.6-2.5-0.4-3.7-0.4c-27.5,0-54.9,0-82.4,0
		c-5.6,0-10.4,2.1-14.5,5.9c-2.4,2.3-4.8,4.6-7,7c-3,3.2-6.5,4.6-10.9,4.6c-26.1-0.1-52.2,0-78.3,0c-1,0-2.2,0.3-3.1-0.5
		c-3.4-7.8-9.3-11.8-17.9-11.8c-0.2,0-0.4,0-0.6,0l0,0c-3.5,1-6.9,2.1-9.5,4.8c-4.9,4.9-6.3,10.7-4.4,17.3c0.2,0.6,0.3,1.1,0.5,1.7
		c0.7,0.7,1.1,1.5,1.2,2.4c0.2,0.2,0.3,0.5,0.5,0.7c0,0,0,0,0,0c0.2,0.2,0.3,0.4,0.5,0.6l0.1,0.1c1.4,1.3,2.8,2.5,4.2,3.8
		c0,0,0.1,0,0.1,0c11,6,20.7,0.1,23.9-7c1.1-2.4,2.6-2.8,4.9-2.8c24.8,0.1,49.6,0,74.4,0.1C146.4,99,149.7,99,153,98.5z M48.8,101.6
		c-4,0-7.4-3.4-7.4-7.4c0-3.9,3.4-7.3,7.2-7.3c4.2,0,7.5,3.2,7.5,7.3C56.1,98.2,52.8,101.6,48.8,101.6z"/>
</g>
<g>
	<path class="st0" d="M893.6,130.5c4,0,7.4-3.3,7.4-7.4c0.1-3.8-3.2-7.2-7.2-7.3c-4.1-0.1-7.5,3.1-7.5,7.2
		C886.3,127.1,889.6,130.5,893.6,130.5z"/>
	<path class="st0" d="M1062.9,87.3c-10.3-0.1-20.6-0.1-30.9,0c-3.5,0-6.4-1.2-8.9-3.7c-2.6-2.5-5.1-5.1-7.7-7.6
		c-4.1-4-9-6.2-14.8-6.3c-4.8,0-9.5-0.1-14.3-0.1c-7,0-14,0.1-21,0.1c-0.9,0.5-1.9,0.6-2.9,0.6c-0.4,0.6-1.1,0.5-1.7,0.5
		c-0.5,0.5-1.1,0.6-1.7,0.6c-0.1,0.4-0.3,0.5-0.7,0.5c-3.8,2.5-7.2,5.6-10.1,9.1c-4.7,5.7-10.6,6.9-17.4,6c-0.2,0.1-0.3,0.1-0.5,0
		c-1.4,0-2.8,0-4.2,0c-1.5,0-3.1,0-4.6,0c-1.4,0-2.8,0-4.2,0c-4,0-8,0.1-11.9,0.1c-22.4,0-44.9,0-67.3,0c-5.8,0-7.7,2.8-5.4,8.1
		c2,1.6,4.3,1.3,6.6,1.3c21.2,0,42.5,0,63.7,0c2.6,0,4.5,0.6,6.3,2.6c6.7,7.2,13.6,14.2,20.4,21.2c3.8,4,8.6,5.9,14,6.6
		c8.4,0,16.8,0,25.2,0c1.3,0,2.7,0,4,0c1.4,0,2.8,0,4.1,0c1.3-0.4,2.3-0.1,2.8,1.2c3.4,8.5,9.9,12,18.8,11.6
		c1.6-0.4,3.1-0.8,4.7-1.3c0.7-0.5,1.3-1,2-1.5c10.7-7.3,9.5-23.5-2.1-29.1c-5.6-2.7-11.1-2-16.5,0.7l0,0c-0.4,0.8-0.9,1.4-1.9,1.5
		c-1.5,1.9-3.3,3.6-4.2,5.9c-0.5,1.1-1.4,1.5-2.6,1.5c-11.2,0-22.4,0-33.6-0.1c-3,0-5.7-1.3-7.8-3.5c-4.8-5-9.6-9.9-14.4-14.9
		c-0.5-0.6-1.3-1.2-1-1.9c0.3-0.9,1.4-0.5,2.1-0.5c4,0,8-0.2,12,0c7.7,0.4,13.8-2.6,18.8-8.1c0.5-0.6,1.1-1,1.7-1.5
		c1.7-2,3.5-3.9,5.9-5.2c0.2-0.2,0.4-0.3,0.6-0.5c1.6-1.7,3.6-2.1,5.8-2.1c10.7,0,21.5-0.1,32.2,0c2.4,0,4.8,0.4,6.7,2.2l0,0.1
		c0.4,0,0.7,0.2,0.7,0.6c0,0,0,0,0,0c2.9,1.8,5.1,4.5,7.4,6.9c4.9,5.2,10.7,7.7,17.9,7.6c10-0.2,20-0.1,30,0c1.1,0,2.5-0.7,3.4,0.7
		c1.7,2.9,3.7,5.7,6,8.1c0,0,0.1,0.1,0.1,0.1c1,0,1.6,0.6,2.2,1.3c4.5,1.9,9.1,2.2,13.8,1.1c8.7-4.4,12.5-11.2,10.6-20.9
		c-2.2-5.3-5.5-9.6-11.3-11.2c-5.3-1.5-10.3-1.1-14.8,2.5c-0.9,0.7-2,1.1-3,1.6c-0.7,1.4-1.7,2.6-2,4.1
		C1067.2,87.1,1065.4,87.3,1062.9,87.3z M995.6,115.7c4,0,7.6,3.5,7.5,7.4c-0.1,4.1-3.4,7.4-7.5,7.4c-3.9,0-7.4-3.4-7.4-7.2
		C988.3,119.2,991.7,115.8,995.6,115.7z M1082.6,84.8c4.2,0,7.4,3.1,7.5,7.2c0.1,4.1-3.2,7.4-7.3,7.4c-4,0-7.3-3.2-7.4-7.1
		C1075.4,88.1,1078.5,84.8,1082.6,84.8z"/>
	<path class="st0" d="M874.5,127.9c2,0,3,0.5,4,2.4c4,8.1,12.7,11.6,20.8,8.6c8.3-3,13.1-11.5,10.8-20.2
		c-1.8-6.7-6.6-10.9-13.4-12.2c-6.6-1.2-12.8,0.6-16,6.4c-2.8,5.1-6.3,5.5-11.2,5.5c-18.8-0.1-37.7-0.1-56.5-0.1l-2.1,9.5
		C832.1,127.9,853.3,127.9,874.5,127.9z M893.9,115.8c4,0.1,7.3,3.5,7.2,7.3c-0.1,4.1-3.4,7.4-7.4,7.4c-4,0-7.3-3.4-7.3-7.5
		C886.4,118.9,889.8,115.7,893.9,115.8z"/>
	<path class="st0" d="M843.8,22.2c1,0,2.2,0,3,0.8c0.9-0.1,1.7,0,2.2,0.9c3.1,1.1,4.8,3.9,6.9,6.1c2.2,1.7,4.2,3.6,6,5.7
		c5.8,3.8,12.2,4.2,18.9,4c8.2-0.2,16.3-0.1,24.5,0c4,0,7.9-0.3,11.7-1.7c0.6-0.6,1.2-1,2.1-1c0-0.1,0.1-0.2,0.3-0.2
		c0.7-0.4,1.4-0.8,2.1-1.2c0-0.2,0-0.3,0.2-0.3c0.9-1.1,1.8-2,3-2.7l0,0c0.3-0.5,0.6-1.1,1.3-1.1l0,0.2c0.1-0.4,0.3-0.7,0.7-0.7
		c0,0,0-0.1,0-0.1c4.4-5.5,9.4-9.3,17.2-8.9c8.6,0.5,17.3,0.1,25.9,0.1c1.5,0,3.1-0.2,3.8,1.8c3.4,8.9,14,12.9,23.3,8.6
		c0.2-0.1,0.3-0.2,0.5-0.2c1.5-1.2,3-2.5,4.6-3.7c0.3-0.5,0.5-1,0.8-1.5c4.2-6.1,4.1-13.5-0.3-19.6C998,1.2,991.7,0,984.7,0.9
		c0,0-0.1-0.1-0.1-0.1c-0.9,1-2.2,1.2-3.4,1.5c-2.7,1.8-5.7,3.7-6.8,6.8c-1.2,3.3-3.2,3.9-6.2,3.3l-0.1,0c-7.5,0.1-15,0.2-22.4,0.1
		c-5.1,0-10.1-0.1-14.9,2c-0.8,0.5-1.6,0.9-2.5,1.4c-3,2.6-5.9,5.3-8.9,7.9l-0.1,0.2l-0.2,0c-0.5,1-1.3,1.8-2.4,2.2l0,0
		c-1.8,2.6-4.4,3.8-7.4,3.9c-11.7,0.1-23.5,0.1-35.2,0.1c-2.4,0-4.6-0.6-6.5-2.2c-3.4-3-6.7-6.1-9.6-9.6l0,0
		c-4.3-3.5-9.2-5.4-14.7-5.9c-2.1,0.2-4.2,0.2-6.3,0c-0.3,0-24.1,0.2-24.4,0.2l1.6,9.7C817.7,22.3,840.6,22.1,843.8,22.2z
		 M989.3,10.1c3.9,0.1,7,3.3,7,7.4c0,4.2-3.2,7.3-7.5,7.3c-4-0.1-7.2-3.3-7.2-7.3C981.7,13.3,985,10,989.3,10.1z"/>
	<path class="st0" d="M946.6,41.5c-4.5,1.3-8.2,3.8-11.4,7.2c-2.2,2.4-4.6,4.7-7.1,7c-2.1,1.9-4.6,2.9-7.4,2.8
		c-26.9,0-53.8,0-80.7,0c-1.5,0-2.9-0.1-4.4,0.2c-2.3,0.3-4,1.7-4.2,4.1c-0.3,2.3,1,3.8,3.1,4.7c1.2,0.6,2.5,0.4,3.7,0.4
		c27.5,0,54.9,0,82.4,0c5.6,0,10.4-2.1,14.5-5.9c2.4-2.3,4.8-4.6,7-7c3-3.2,6.5-4.6,10.9-4.6c26.1,0.1,52.2,0,78.3,0
		c1,0,2.2-0.3,3.1,0.5c3.4,7.8,9.3,11.8,17.9,11.8c0.2,0,0.4,0,0.6,0l0,0c3.5-1,6.9-2.1,9.5-4.8c4.9-4.9,6.3-10.7,4.4-17.3
		c-0.2-0.6-0.3-1.1-0.5-1.7c-0.7-0.7-1.1-1.5-1.2-2.4c-0.2-0.2-0.3-0.5-0.5-0.7c0,0,0,0,0,0c-0.2-0.2-0.3-0.4-0.5-0.6l-0.1-0.1
		c-1.4-1.3-2.8-2.5-4.2-3.8c0,0-0.1,0-0.1,0c-11-6-20.7-0.1-23.9,7c-1.1,2.4-2.6,2.8-4.9,2.8c-24.8-0.1-49.6,0-74.4-0.1
		C953.2,41,949.9,40.9,946.6,41.5z M1050.7,38.3c4,0,7.4,3.4,7.4,7.4c0,3.9-3.4,7.3-7.2,7.3c-4.2,0-7.5-3.2-7.5-7.3
		C1043.4,41.8,1046.8,38.3,1050.7,38.3z"/>
</g>
</svg>
