<?xml version="1.0" encoding="utf-8"?>
<!-- Generator: Adobe Illustrator 23.0.2, SVG Export Plug-In . SVG Version: 6.00 Build 0)  -->
<!DOCTYPE svg PUBLIC "-//W3C//DTD SVG 1.1//EN" "http://www.w3.org/Graphics/SVG/1.1/DTD/svg11.dtd" [
	<!ENTITY ns_extend "http://ns.adobe.com/Extensibility/1.0/">
	<!ENTITY ns_ai "http://ns.adobe.com/AdobeIllustrator/10.0/">
	<!ENTITY ns_graphs "http://ns.adobe.com/Graphs/1.0/">
	<!ENTITY ns_vars "http://ns.adobe.com/Variables/1.0/">
	<!ENTITY ns_imrep "http://ns.adobe.com/ImageReplacement/1.0/">
	<!ENTITY ns_sfw "http://ns.adobe.com/SaveForWeb/1.0/">
	<!ENTITY ns_custom "http://ns.adobe.com/GenericCustomNamespace/1.0/">
	<!ENTITY ns_adobe_xpath "http://ns.adobe.com/XPath/1.0/">
]>
<svg version="1.1" id="Layer_1" xmlns:x="&ns_extend;" xmlns:i="&ns_ai;" xmlns:graph="&ns_graphs;"
	 xmlns="http://www.w3.org/2000/svg" xmlns:xlink="http://www.w3.org/1999/xlink" x="0px" y="0px" viewBox="0 0 73.9 73.9"
	 style="enable-background:new 0 0 73.9 73.9;" xml:space="preserve">
<style type="text/css">
	.st0{fill:none;stroke:#000000;stroke-width:3;stroke-miterlimit:10;}
	.st1{fill:#020202;}
</style>
<metadata>
	<sfw  xmlns="&ns_sfw;">
		<slices></slices>
		<sliceSourceBounds  bottomLeftOrigin="true" height="73.9" width="73.9" x="13.6" y="30.8"></sliceSourceBounds>
	</sfw>
</metadata>
<circle class="st0" cx="37" cy="37" r="35.5"/>
<path d="M37,37"/>
<g>
	<path d="M58.4,37.3V14H15.6v23.3h-3.3v20.6h7.4v-4.1h1.4l0.5,0.2l-0.3,0.6c-0.6,1.1-0.2,2.4,0.7,3c0.4,0.2,0.9,0.4,1.3,0.4
		c0.2,0,0.3,0,0.5-0.1c0.3,0,0.6-0.2,0.8-0.3c0.1,0.7,0.4,1.4,1,1.8c0.4,0.2,0.9,0.4,1.3,0.4c0.2,0,0.3,0,0.5-0.1
		c0.1,0,0.2,0,0.2-0.1c0.2,0.6,0.5,1.1,1,1.4c0.4,0.2,0.9,0.4,1.3,0.4c0.2,0,0.3,0,0.5-0.1c0.3,0,0.6-0.2,0.8-0.3
		c0.2,0.4,0.5,0.7,0.8,1c0.3,0.2,0.8,0.4,1.2,0.4c0.3,0,0.7-0.1,1-0.2l0.7,0.2c0.2,0.1,0.5,0.1,0.7,0.1c0.6,0,1.2-0.2,1.6-0.7
		c0.3-0.3,0.6-0.8,0.7-1.3c0.2,0.1,0.6,0.2,0.8,0.2c0.4,0,0.9-0.1,1.2-0.5c0.5-0.3,0.9-0.9,1-1.5c0.7,0.3,1.6,0.3,2.3-0.2
		c0.5-0.3,0.9-0.9,1-1.5c0.7,0.3,1.6,0.2,2.3-0.2h0.1c0.6-0.3,0.9-1,1.1-1.6c0-0.1,0-0.2,0-0.2l4.9-1.4h1.6v4.1h7.4V37.3
		C61.7,37.3,58.4,37.3,58.4,37.3z M17.2,15.7h39.5v21.6h-2.5v2.5h-1.3l-7.1-4.2c-0.8-0.5-1.7-0.7-2.6-0.6l-4.9,0.7
		c-0.5,0-0.9,0.2-1.3,0.6c-0.4-0.3-0.8-0.6-1.3-0.7L30.8,35c-0.9-0.1-1.8,0.1-2.6,0.6l-7.1,4.2h-1.4v-2.5h-2.5V15.7z M18,56.2h-4.1
		V39H18V56.2z M23.5,56.4c-0.2,0.1-0.3,0-0.5-0.1c-0.3-0.2-0.4-0.6-0.2-0.9l1.8-3.2c0.1-0.2,0.2-0.2,0.4-0.3c0.2-0.1,0.3,0,0.5,0.1
		c0.3,0.2,0.4,0.6,0.2,0.9l-1.8,3.2C23.8,56.2,23.6,56.3,23.5,56.4z M27.1,58.2c-0.2,0.1-0.3,0-0.5-0.1c-0.3-0.2-0.4-0.6-0.2-0.9
		l1.8-3.2c0.1-0.2,0.2-0.2,0.4-0.3s0.3,0,0.5,0.1c0.3,0.2,0.4,0.6,0.2,0.9l-1.8,3.2C27.4,58.1,27.3,58.1,27.1,58.2z M30.1,59.9
		c-0.2,0.1-0.3,0-0.5-0.1c-0.3-0.2-0.4-0.6-0.2-0.9l1.8-3.2c0.1-0.2,0.2-0.2,0.4-0.3c0.2-0.1,0.3,0,0.5,0.1c0.3,0.2,0.4,0.6,0.2,0.9
		l-1.8,3.2C30.4,59.7,30.2,59.8,30.1,59.9z M32.9,60.8c-0.1-0.1-0.2-0.2-0.2-0.4c-0.1-0.2,0-0.3,0.1-0.5l1.6-2.5
		c0.2-0.2,0.3-0.3,0.6-0.3c0.2,0,0.2,0,0.3,0.2c0.1,0.1,0.2,0.2,0.2,0.4c0.1,0.2,0,0.3-0.1,0.5l-1.6,2.5
		C33.6,60.8,33.2,60.9,32.9,60.8z M36.2,60.8c-0.2,0.2-0.4,0.2-0.7,0.2l0.7-1.2C36.5,60.1,36.5,60.5,36.2,60.8z M45.9,55.5
		c-0.3,0.2-0.7,0.2-1-0.1l-6.5-6.5l-1.2,1.2l5.4,6.1c0.2,0.2,0.2,0.4,0.2,0.6c-0.1,0.2-0.1,0.3-0.3,0.5c-0.2,0.2-0.7,0.2-0.9-0.1
		l-6.5-5.7l-1.2,1.2l5.3,5.3c0.2,0.2,0.2,0.4,0.2,0.5c0,0.2,0,0.3-0.2,0.5c-0.2,0.2-0.6,0.2-0.8-0.1l-1.2-1.2c0-0.2,0-0.2,0-0.4
		c-0.1-0.6-0.5-1.2-1-1.5c-0.7-0.4-1.6-0.5-2.3-0.1c-0.1-0.6-0.4-1.2-1-1.6c-0.5-0.3-1.2-0.5-1.8-0.3c-0.1,0-0.2,0-0.2,0.1
		c-0.2-0.6-0.5-1.1-1-1.4c-0.5-0.3-1.2-0.4-1.8-0.3c-0.3,0-0.6,0.2-0.8,0.3c-0.1-0.7-0.4-1.4-1-1.8c-0.5-0.3-1.2-0.5-1.8-0.3
		c-0.7,0.1-1.2,0.5-1.5,1.1l-0.7,1.2l-0.8-0.5h-1.9V41.4h1.9l7.5-4.4c0.5-0.2,1-0.4,1.6-0.3l4.9,0.6c0.1,0,0.2,0,0.2,0.1l-5,4.5
		c-0.4,0.3-0.6,0.8-0.6,1.3s0.2,0.9,0.7,1.2l0.9,0.7c1.2,0.9,3,0.9,4.1-0.1l1.8-1.6l8.5,11c0.2,0.2,0.2,0.3,0.2,0.6
		C46.2,55.2,46.1,55.4,45.9,55.5z M52.7,52.1l-5.3,1.5c0,0,0,0,0-0.1l-8.4-11.1c0.1-0.1,0.2-0.1,0.3-0.1h1.1c0.2,0,0.3,0.1,0.5,0.2
		c0.5,2.4,1.9,4,4.1,4.7l0.5-1.6c-1.6-0.5-2.6-1.7-3-3.7v-0.2l-0.2-0.2c-0.5-0.6-1.2-0.9-1.9-0.9h-1.1c-0.6,0-1.2,0.2-1.6,0.6
		l-3,2.5c-0.6,0.5-1.5,0.6-2.1,0.1l-0.9-0.7l6.3-5.6c0.1-0.1,0.2-0.2,0.4-0.2l4.9-0.7c0.5-0.1,1.1,0.1,1.6,0.3l7.5,4.4h1.8v10.7
		C54.2,52.1,52.7,52.1,52.7,52.1z M60,56.2h-4.1V39H60V56.2z"/>
	<rect x="30.4" y="19" width="23" height="1.6"/>
	<rect x="30.4" y="23.9" width="23" height="1.6"/>
	<rect x="30.4" y="28.8" width="19.7" height="1.6"/>
	<path class="st1" d="M13,55.7l1.8,1.8c0.3-0.5,1-0.7,1.7-0.7c0.6,0,1.3,0.2,1.9,0.1c0.6-1.1,0.9-2.5,0.7-3.8V38.4
		c-1.6-0.2-3.2-0.2-4.8,0c-0.2,0-0.7,0-0.8,0.2c-0.2,0.2-0.1,0.8-0.1,1.1c0,0.8,0,1.6-0.1,2.4c-0.1,3.2-0.2,6.5-0.3,9.7
		c0,0.6,0,1.3,0,1.9C13,54.1,12.8,55.5,13,55.7z"/>
	<path class="st1" d="M54.9,55.7l1.8,1.8c0.3-0.5,1-0.7,1.7-0.7c0.6,0,1.3,0.2,1.9,0.1c0.6-1.1,0.9-2.5,0.7-3.8V38.4
		c-1.6-0.2-3.2-0.2-4.8,0c-0.2,0-0.7,0-0.8,0.2c-0.2,0.2-0.1,0.8-0.1,1.1c0,0.8,0,1.6-0.1,2.4c-0.1,3.2-0.2,6.5-0.3,9.7
		c0,0.6,0,1.3,0,1.9C55,54.1,54.7,55.5,54.9,55.7z"/>
	<path d="M21.1,26.9l-1.4,2.4c0,0,0.6,0.8,2.2,1.4l0.8-2.2l0.5-1.5l0.6-1.6c0,0,0.2-0.5,0.2-0.5l0-0.1c0,0,0,0,0,0l0,0l0,0
		c0,0,0,0,0,0l0,0l0,0l0,0l0.1,0.2l0.1,0.3l0.4,1.2l0.3,1l0.5,1.6l0.4,1.1l0.2,0.6c0,0,1.3-0.4,2.4-1.4l-0.8-1.2l-0.5-0.9l-0.5-1
		l-0.4-0.9l-0.3-0.8l-0.3-0.8L25.3,23L25,22.1l-0.3-0.9l-0.2-0.9l-0.3-1l-0.2-0.5l-0.3,1l-0.4,1.4l-0.3,1l-0.4,1.2l-0.3,0.9
		l-0.4,0.9L21.5,26L21.1,26.9z"/>
</g>
</svg>
