<?xml version="1.0" encoding="utf-8"?>
<!-- Generator: Adobe Illustrator 23.0.2, SVG Export Plug-In . SVG Version: 6.00 Build 0)  -->
<!DOCTYPE svg PUBLIC "-//W3C//DTD SVG 1.1//EN" "http://www.w3.org/Graphics/SVG/1.1/DTD/svg11.dtd" [
	<!ENTITY ns_extend "http://ns.adobe.com/Extensibility/1.0/">
	<!ENTITY ns_ai "http://ns.adobe.com/AdobeIllustrator/10.0/">
	<!ENTITY ns_graphs "http://ns.adobe.com/Graphs/1.0/">
	<!ENTITY ns_vars "http://ns.adobe.com/Variables/1.0/">
	<!ENTITY ns_imrep "http://ns.adobe.com/ImageReplacement/1.0/">
	<!ENTITY ns_sfw "http://ns.adobe.com/SaveForWeb/1.0/">
	<!ENTITY ns_custom "http://ns.adobe.com/GenericCustomNamespace/1.0/">
	<!ENTITY ns_adobe_xpath "http://ns.adobe.com/XPath/1.0/">
]>
<svg version="1.1" id="Layer_1" xmlns:x="&ns_extend;" xmlns:i="&ns_ai;" xmlns:graph="&ns_graphs;"
	 xmlns="http://www.w3.org/2000/svg" xmlns:xlink="http://www.w3.org/1999/xlink" x="0px" y="0px" viewBox="0 0 64 82"
	 style="enable-background:new 0 0 64 82;" xml:space="preserve">
<style type="text/css">
	.st0{fill:#FF8D8D;}
	.st1{font-family:'LEIXO-DEMO';}
	.st2{font-size:58.497px;}
</style>
<metadata>
	<sfw  xmlns="&ns_sfw;">
		<slices></slices>
		<sliceSourceBounds  bottomLeftOrigin="true" height="82.1" width="63.9" x="0.1" y="-0.1"></sliceSourceBounds>
	</sfw>
</metadata>
<g transform="translate(0,-952.36218)">
	<g>
		<path class="st0" d="M31.8,952.4c-0.1,0-0.3,0.1-0.4,0.1l-30,11c-0.8,0.3-1.3,1-1.3,1.9v33c0,7.8,4.4,14.3,10.3,20
			c5.9,5.7,13.5,10.7,20.5,15.7c0.7,0.5,1.6,0.5,2.3,0c7-5,14.6-10,20.5-15.7c5.9-5.7,10.3-12.2,10.3-20v-33c0-0.8-0.5-1.6-1.3-1.9
			l-30-11C32.5,952.4,32.1,952.3,31.8,952.4z M32.1,956.5l28,10.3v31.6c0,6.3-3.5,11.8-9.1,17.1c-5.2,5-12.2,9.7-18.9,14.4
			c-6.7-4.7-13.7-9.4-18.9-14.4c-5.5-5.3-9.1-10.8-9.1-17.1v-31.6L32.1,956.5z"/>
	</g>
</g>
<text transform="matrix(1 0 0 1 22.2637 60.0695)" class="st0 st1 st2">!</text>
</svg>
