<?xml version="1.0" encoding="utf-8"?>
<!-- Generator: Adobe Illustrator 23.0.2, SVG Export Plug-In . SVG Version: 6.00 Build 0)  -->
<!DOCTYPE svg PUBLIC "-//W3C//DTD SVG 1.1//EN" "http://www.w3.org/Graphics/SVG/1.1/DTD/svg11.dtd" [
	<!ENTITY ns_extend "http://ns.adobe.com/Extensibility/1.0/">
	<!ENTITY ns_ai "http://ns.adobe.com/AdobeIllustrator/10.0/">
	<!ENTITY ns_graphs "http://ns.adobe.com/Graphs/1.0/">
	<!ENTITY ns_vars "http://ns.adobe.com/Variables/1.0/">
	<!ENTITY ns_imrep "http://ns.adobe.com/ImageReplacement/1.0/">
	<!ENTITY ns_sfw "http://ns.adobe.com/SaveForWeb/1.0/">
	<!ENTITY ns_custom "http://ns.adobe.com/GenericCustomNamespace/1.0/">
	<!ENTITY ns_adobe_xpath "http://ns.adobe.com/XPath/1.0/">
]>
<svg version="1.1" id="Layer_1" xmlns:x="&ns_extend;" xmlns:i="&ns_ai;" xmlns:graph="&ns_graphs;"
	 xmlns="http://www.w3.org/2000/svg" xmlns:xlink="http://www.w3.org/1999/xlink" x="0px" y="0px" viewBox="0 0 58.2 53"
	 style="enable-background:new 0 0 58.2 53;" xml:space="preserve">
<style type="text/css">
	.st0{fill:#333333;}
</style>
<metadata>
	<sfw  xmlns="&ns_sfw;">
		<slices></slices>
		<sliceSourceBounds  bottomLeftOrigin="true" height="53" width="58.2" x="20.9" y="48.5"></sliceSourceBounds>
	</sfw>
</metadata>
<g>
	<path class="st0" d="M31.6,50.5v-5.2c3.8-1.1,6.6-4.6,6.6-8.7s-2.8-7.6-6.6-8.7V2.5c0-1.4-1.1-2.5-2.5-2.5s-2.5,1.1-2.5,2.5v25.4
		C22.8,29,20,32.5,20,36.6s2.8,7.6,6.6,8.7v5.2c0,1.4,1.1,2.5,2.5,2.5S31.6,51.9,31.6,50.5z M25,36.6c0-2.2,1.8-4.1,4.1-4.1
		s4.1,1.8,4.1,4.1s-1.8,4.1-4.1,4.1S25,38.8,25,36.6z"/>
	<path class="st0" d="M46.6,2.5v5.4C42.8,9,40,12.5,40,16.6s2.8,7.6,6.6,8.7v25.2c0,1.4,1.1,2.5,2.5,2.5s2.5-1.1,2.5-2.5V25.3
		c3.8-1.1,6.6-4.6,6.6-8.7S55.4,9,51.6,7.9V2.5c0-1.4-1.1-2.5-2.5-2.5S46.6,1.1,46.6,2.5z M53.2,16.6c0,2.2-1.8,4.1-4.1,4.1
		S45,18.9,45,16.6s1.9-4.1,4.1-4.1S53.2,14.4,53.2,16.6z"/>
	<path class="st0" d="M11.6,50.5V25.3c3.8-1.1,6.6-4.6,6.6-8.7S15.4,9,11.6,7.9V2.5c0-1.4-1.1-2.5-2.5-2.5S6.6,1.1,6.6,2.5v5.4
		C2.8,9,0,12.5,0,16.6s2.8,7.6,6.6,8.7v25.2c0,1.4,1.1,2.5,2.5,2.5S11.6,51.9,11.6,50.5z M5,16.6c0-2.2,1.8-4.1,4.1-4.1
		s4.1,1.8,4.1,4.1s-1.8,4.1-4.1,4.1S5,18.8,5,16.6z"/>
</g>
</svg>
