<?xml version="1.0" encoding="utf-8"?>
<!-- Generator: Adobe Illustrator 23.0.3, SVG Export Plug-In . SVG Version: 6.00 Build 0)  -->
<!DOCTYPE svg PUBLIC "-//W3C//DTD SVG 1.1//EN" "http://www.w3.org/Graphics/SVG/1.1/DTD/svg11.dtd" [
	<!ENTITY ns_extend "http://ns.adobe.com/Extensibility/1.0/">
	<!ENTITY ns_ai "http://ns.adobe.com/AdobeIllustrator/10.0/">
	<!ENTITY ns_graphs "http://ns.adobe.com/Graphs/1.0/">
	<!ENTITY ns_vars "http://ns.adobe.com/Variables/1.0/">
	<!ENTITY ns_imrep "http://ns.adobe.com/ImageReplacement/1.0/">
	<!ENTITY ns_sfw "http://ns.adobe.com/SaveForWeb/1.0/">
	<!ENTITY ns_custom "http://ns.adobe.com/GenericCustomNamespace/1.0/">
	<!ENTITY ns_adobe_xpath "http://ns.adobe.com/XPath/1.0/">
]>
<svg version="1.1" id="Layer_1" xmlns:x="&ns_extend;" xmlns:i="&ns_ai;" xmlns:graph="&ns_graphs;"
	 xmlns="http://www.w3.org/2000/svg" xmlns:xlink="http://www.w3.org/1999/xlink" x="0px" y="0px" viewBox="0 0 72.5 92.8"
	 style="enable-background:new 0 0 72.5 92.8;" xml:space="preserve">
<style type="text/css">
	.st0{fill:#126585;}
</style>
<metadata>
	<sfw  xmlns="&ns_sfw;">
		<slices></slices>
		<sliceSourceBounds  bottomLeftOrigin="true" height="92.8" width="72.4" x="17.8" y="30.1"></sliceSourceBounds>
	</sfw>
</metadata>
<path class="st0" d="M53.3,38.4h-4V27.5c0-1.2-0.2-4.3-1.8-7.3c-1.6-2.8-4.9-6.2-11.6-6.2c-6.7,0-10,3.4-11.6,6.2
	c-1.7,3-1.8,6.1-1.8,7.3v10.9h-3c-1.5,0-2.8,1.3-2.8,2.8v22.2c0,1.5,1.3,2.8,2.8,2.8h33.9c1.5,0,2.8-1.2,2.8-2.8V41.2
	C56,39.7,54.8,38.4,53.3,38.4z M27.8,27.5c0-2.4,0.8-8.1,8-8.1c7.3,0,8,5.7,8,8.1v10.9H27.8V27.5z M47.9,47.8
	c-3.9,3.8-7.8,7.7-11.7,11.6c-2,2-2.1,2-4.1,0c-2-2-4-4-6-6c-0.5-0.5-0.5-1.5,0-2c0.3-0.4,0.7-0.7,1.1-1.1c0.5-0.5,1.5-0.5,2,0
	c1.6,1.6,3.2,3.2,4.9,4.9c3.5-3.5,7-7,10.5-10.5c0.6-0.5,1.5-0.5,2.1,0l1.1,1.1C48.4,46.3,48.4,47.2,47.9,47.8z"/>
<g transform="translate(0,-952.36218)">
	<path class="st0" d="M36,952.4c-0.2,0-0.3,0.1-0.5,0.1L1.6,965c-0.9,0.3-1.5,1.2-1.5,2.1v37.3c0,8.8,5,16.2,11.7,22.6
		c6.7,6.4,15.3,12.1,23.2,17.7c0.8,0.6,1.8,0.6,2.6,0c7.9-5.6,16.5-11.3,23.2-17.7c6.7-6.4,11.7-13.7,11.7-22.6v-37.3
		c0-0.9-0.6-1.8-1.5-2.1l-33.9-12.4C36.7,952.4,36.3,952.4,36,952.4z M36.3,957.1L68,968.7v35.7c0,7.1-4,13.3-10.3,19.3
		c-5.9,5.7-13.8,11-21.4,16.3c-7.6-5.4-15.5-10.7-21.4-16.3c-6.3-6-10.3-12.2-10.3-19.3v-35.7L36.3,957.1z"/>
</g>
</svg>
