<?xml version="1.0" encoding="utf-8"?>
<!-- Generator: Adobe Illustrator 23.0.2, SVG Export Plug-In . SVG Version: 6.00 Build 0)  -->
<!DOCTYPE svg PUBLIC "-//W3C//DTD SVG 1.1//EN" "http://www.w3.org/Graphics/SVG/1.1/DTD/svg11.dtd" [
	<!ENTITY ns_extend "http://ns.adobe.com/Extensibility/1.0/">
	<!ENTITY ns_ai "http://ns.adobe.com/AdobeIllustrator/10.0/">
	<!ENTITY ns_graphs "http://ns.adobe.com/Graphs/1.0/">
	<!ENTITY ns_vars "http://ns.adobe.com/Variables/1.0/">
	<!ENTITY ns_imrep "http://ns.adobe.com/ImageReplacement/1.0/">
	<!ENTITY ns_sfw "http://ns.adobe.com/SaveForWeb/1.0/">
	<!ENTITY ns_custom "http://ns.adobe.com/GenericCustomNamespace/1.0/">
	<!ENTITY ns_adobe_xpath "http://ns.adobe.com/XPath/1.0/">
]>
<svg version="1.1" id="Layer_1" xmlns:x="&ns_extend;" xmlns:i="&ns_ai;" xmlns:graph="&ns_graphs;"
	 xmlns="http://www.w3.org/2000/svg" xmlns:xlink="http://www.w3.org/1999/xlink" x="0px" y="0px" viewBox="0 0 75.7 74.3"
	 style="enable-background:new 0 0 75.7 74.3;" xml:space="preserve">
<style type="text/css">
	.st0{fill:#FFFFFF;}
</style>
<metadata>
	<sfw  xmlns="&ns_sfw;">
		<slices></slices>
		<sliceSourceBounds  bottomLeftOrigin="true" height="74.3" width="75.7" x="12.2" y="37.8"></sliceSourceBounds>
	</sfw>
</metadata>
<path class="st0" d="M29.7,32.2h-7.5l0,0c-0.1,0-0.2,0-0.3,0h-0.1c-0.1,0-0.1,0-0.2,0.1c-0.1,0-0.1,0-0.2,0.1
	c-0.1,0-0.1,0.1-0.2,0.1c-0.1,0-0.1,0.1-0.2,0.1l-0.1,0.1c-0.1,0-0.1,0.1-0.2,0.2l0,0L20.6,33c0,0.1-0.1,0.1-0.1,0.2
	s-0.1,0.1-0.1,0.2c0,0.1-0.1,0.1-0.1,0.2s0,0.1-0.1,0.2c0,0.1,0,0.1,0,0.2s0,0.1,0,0.2v0.1l0,0c0,0.1,0,0.2,0,0.2c0,0.1,0,0.1,0,0.2
	c0,0.1,0,0.1,0.1,0.2c0,0.1,0,0.1,0.1,0.2c0,0.1,0.1,0.1,0.1,0.2s0.1,0.1,0.1,0.2l0.1,0.1c0,0.1,0.1,0.1,0.1,0.2l0,0l15.4,14.5
	c0.4,0.4,0.9,0.5,1.4,0.5s1-0.2,1.4-0.5l15.4-14.5c0.8-0.8,0.8-2,0.1-2.8c-0.4-0.5-1-0.7-1.6-0.6h-0.1h-7.5v-2.9c0-1.1-0.9-2-2-2
	s-2,0.9-2,2v4.9c0,1.1,0.9,2,2,2H48l-10.4,9.8l-10.4-9.8h4.4c1.1,0,2-0.9,2-2v-4.9c0-1.1-0.9-2-2-2c-1.1,0-2,0.9-2,2L29.7,32.2
	L29.7,32.2z"/>
<path class="st0" d="M29.7,23.3c0,1.1,0.9,2,2,2c1.1,0,2-0.9,2-2v-3.2c0-1.1-0.9-2-2-2c-1.1,0-2,0.9-2,2V23.3z"/>
<path class="st0" d="M41.3,23.3c0,1.1,0.9,2,2,2s2-0.9,2-2v-3.2c0-1.1-0.9-2-2-2s-2,0.9-2,2V23.3z"/>
<path class="st0" d="M29.7,12.8c0,1.1,0.9,2,2,2c1.1,0,2-0.9,2-2v-1.4c0-1.1-0.9-2-2-2c-1.1,0-2,0.9-2,2V12.8z"/>
<path class="st0" d="M41.3,12.8c0,1.1,0.9,2,2,2s2-0.9,2-2v-1.4c0-1.1-0.9-2-2-2s-2,0.9-2,2V12.8z"/>
<path class="st0" d="M31.7,4.1c1.1,0,2-0.9,2-2V2c0-1.1-0.9-2-2-2c-1.1,0-2,0.9-2,2v0.1C29.7,3.2,30.6,4.1,31.7,4.1z"/>
<path class="st0" d="M43.3,4.1c1.1,0,2-0.9,2-2V2c0-1.1-0.9-2-2-2s-2,0.9-2,2v0.1C41.3,3.2,42.2,4.1,43.3,4.1z"/>
<path class="st0" d="M75.7,51.4V37.2c0-9.4-9.2-17.7-23.4-21.2c-1.1-0.3-2.2,0.4-2.4,1.5c-0.3,1.1,0.4,2.2,1.5,2.4
	c12.4,3,20.4,9.8,20.4,17.3c0,10.2-15.5,18.9-33.9,18.9S4,47.5,4,37.2c0-7.3,7.8-14.1,19.9-17.2c1.1-0.3,1.7-1.4,1.4-2.4
	c-0.3-1.1-1.4-1.7-2.4-1.4C9,19.8,0,28,0,37.2v14.2c0,12.8,16.6,22.9,37.9,22.9S75.7,64.2,75.7,51.4z M71.7,47.6v3.9
	c0,2.9-1.2,5.7-3.5,8.1V51C69.5,49.9,70.7,48.8,71.7,47.6z M11.2,53.6c1.4,0.8,2.9,1.6,4.6,2.3v9.7c-1.7-0.8-3.2-1.7-4.6-2.7V53.6z
	 M19.8,57.4c1.8,0.6,3.6,1,5.5,1.4v10.1c-1.9-0.4-3.8-1-5.5-1.6V57.4z M29.3,59.5c2.1,0.3,4.3,0.5,6.5,0.5v10.2
	c-2.2-0.1-4.4-0.3-6.5-0.6V59.5z M39.8,60c2.2-0.1,4.3-0.2,6.3-0.5v10.2c-2,0.3-4.2,0.5-6.3,0.6V60z M50.1,58.8
	c1.9-0.4,3.8-0.9,5.5-1.4v9.9c-1.7,0.6-3.6,1.1-5.5,1.6C50.1,68.9,50.1,58.8,50.1,58.8z M59.7,56c1.6-0.7,3.2-1.4,4.6-2.3v9.4
	c-1.4,1-2.9,1.8-4.6,2.6V56z M3.9,51.4v-3.9c1,1.2,2.1,2.3,3.3,3.3v8.6C5.1,57,3.9,54.3,3.9,51.4z"/>
</svg>
